<svg width="27" height="25" viewBox="0 0 27 25" fill="none" xmlns="http://www.w3.org/2000/svg">
<circle cx="13.0208" cy="12.493" r="11.8264" stroke="white"/>
<g clip-path="url(#clip0_229_222)">
<path d="M18.3218 10.5368L18.6893 13.2699C17.5638 13.0305 16.5002 12.5875 15.5478 11.9748C16.3376 11.6104 17.0779 11.1316 17.7475 10.5457C17.7811 10.5457 17.8147 10.5475 17.8482 10.5475C18.009 10.5475 18.1663 10.5439 18.3218 10.5368ZM10.9806 12.7697L9.73501 14.7669L8.00529 14.7937L8.55654 12.2285C9.33571 12.5196 10.1484 12.7018 10.9806 12.7697ZM7.88515 15.3528L11.6308 15.2938L12.9913 16.8783C11.6326 16.555 10.1272 16.2299 8.56361 16.2299C8.26501 16.2299 7.97349 16.2406 7.6908 16.2656L7.88515 15.3528ZM13.887 17.0945L13.8959 17.0855L11.8782 14.7329L10.1961 14.7597L11.4223 12.7965C11.5301 12.8001 11.6361 12.8054 11.7439 12.8054C12.9188 12.8054 14.0584 12.5822 15.1203 12.1588C16.2051 12.8983 17.4348 13.4182 18.7423 13.6772L18.949 15.2152L17.6839 15.3349L16.6344 17.5178C16.5903 17.5196 16.5461 17.5214 16.5002 17.5214C15.7652 17.5214 14.8588 17.3249 13.887 17.0945ZM14.2316 10.1027C15.1079 10.2653 16.0072 10.4332 16.9171 10.5082C16.327 10.9566 15.6874 11.3228 15.0107 11.6014C14.3694 11.1227 13.7881 10.5618 13.281 9.92942C13.5937 9.98301 13.91 10.042 14.2316 10.1027ZM11.8623 10.7994C12.1856 10.4528 12.4753 10.1402 12.728 9.84546C13.2598 10.5707 13.8853 11.2156 14.5832 11.764C13.6821 12.0802 12.7262 12.2463 11.7439 12.2463C10.6803 12.2463 9.6502 12.0534 8.67315 11.6765L9.01768 10.0759C9.17316 10.0098 9.3304 9.95264 9.49472 9.90441C9.73677 10.1831 10.0089 10.476 10.3128 10.8012L11.0884 11.5979L11.8623 10.7994Z" fill="white"/>
<path d="M20.4862 16.287L17.2228 18.8665L17.0691 18.8844C16.8907 18.9058 16.6981 18.9165 16.5002 18.9165C15.4896 18.9165 14.3359 18.6379 13.115 18.3449C11.7174 18.0091 10.1344 17.6268 8.56013 17.6268C7.91171 17.6268 7.31805 17.6875 6.74207 17.8161L5.90283 18.0001L7.80923 9.12733L8.03538 9.00586C8.23327 8.90046 8.43645 8.80757 8.64494 8.7254C8.72974 8.88617 8.82869 9.04694 8.94176 9.20771C8.72268 9.2881 8.50712 9.38456 8.29511 9.49889L6.62546 17.2695C10.4754 16.4228 14.3041 18.5325 16.8341 18.3449C17.2122 17.6357 18.048 15.8601 18.048 15.8601L19.8501 15.6904L19.0356 9.62393C17.1557 9.91689 15.2069 9.40421 13.3164 9.08624C13.4295 8.91475 13.5284 8.74326 13.6079 8.56999C13.9012 8.62179 14.1928 8.67538 14.4825 8.72897C15.5974 8.93619 16.7493 9.15234 17.8483 9.15234C18.2405 9.15234 18.601 9.12554 18.9508 9.07195L19.5073 8.98442L20.4862 16.287ZM11.0867 5.02765C9.84461 5.02765 8.83752 6.04587 8.83752 7.30168C8.83752 8.48603 9.62199 9.23629 11.0054 10.7315C11.0231 10.7511 11.0867 10.8136 11.0867 10.8136C11.0867 10.8136 11.1521 10.7493 11.168 10.7315C12.5514 9.23629 13.3358 8.48603 13.3358 7.30168C13.3358 6.04587 12.3305 5.02765 11.0867 5.02765ZM11.0867 10.0026C9.87994 8.70396 9.39053 8.13769 9.39053 7.30168C9.39053 6.35491 10.152 5.58678 11.0867 5.58678C12.0213 5.58678 12.7828 6.35669 12.7828 7.30168C12.7846 8.13769 12.2934 8.70575 11.0867 10.0026ZM11.3747 8.12161H10.8005L10.728 6.11196H11.4453L11.3747 8.12161ZM11.3747 8.48424H10.8005V9.06481H11.3747V8.48424Z" fill="white"/>
</g>
<g clip-path="url(#clip1_229_222)">
<path d="M24.0557 0.166626C22.4689 0.166626 21.1807 1.45482 21.1807 3.04163C21.1807 4.62843 22.4689 5.91663 24.0557 5.91663C25.6425 5.91663 26.9307 4.62843 26.9307 3.04163C26.9307 1.45482 25.6425 0.166626 24.0557 0.166626ZM25.9723 3.43399H24.4723V5.01385H23.6355V3.43399H22.1355V2.6319H23.6355V1.06593H24.4723V2.6319H25.9723V3.43399Z" fill="white"/>
</g>
<defs>
<clipPath id="clip0_229_222">
<rect width="14.5833" height="13.8889" fill="white" transform="translate(5.90283 5.02765)"/>
</clipPath>
<clipPath id="clip1_229_222">
<rect width="5.74653" height="5.74653" fill="white" transform="translate(21.1807 0.166626)"/>
</clipPath>
</defs>
</svg>
