<svg width="26" height="26" viewBox="0 0 26 26" fill="none" xmlns="http://www.w3.org/2000/svg">
<path d="M18.3397 10.9245L18.7159 13.7259C17.5637 13.4806 16.4747 13.0265 15.4997 12.3985C16.3083 12.0249 17.0662 11.5342 17.7518 10.9336C17.7861 10.9336 17.8205 10.9355 17.8549 10.9355C18.0195 10.9355 18.1805 10.9318 18.3397 10.9245ZM10.8237 13.2133L9.54848 15.2603L7.77758 15.2878L8.34195 12.6585C9.13967 12.9569 9.97176 13.1437 10.8237 13.2133ZM7.65457 15.8609L11.4894 15.8005L12.8823 17.4246C11.4912 17.0932 9.95005 16.7599 8.34918 16.7599C8.04348 16.7599 7.74502 16.7709 7.45559 16.7965L7.65457 15.8609ZM13.7994 17.6461L13.8084 17.637L11.7427 15.2255L10.0206 15.253L11.276 13.2407C11.3863 13.2444 11.4948 13.2499 11.6052 13.2499C12.8081 13.2499 13.9748 13.021 15.062 12.587C16.1726 13.3451 17.4316 13.8779 18.7702 14.1434L18.9818 15.7199L17.6867 15.8426L16.6122 18.0801C16.567 18.0819 16.5217 18.0837 16.4747 18.0837C15.7222 18.0837 14.7942 17.8823 13.7994 17.6461ZM14.1521 10.4796C15.0493 10.6462 15.97 10.8183 16.9016 10.8952C16.2974 11.3548 15.6426 11.7301 14.9498 12.0158C14.2932 11.5251 13.6981 10.9501 13.1789 10.3019C13.4991 10.3569 13.8229 10.4173 14.1521 10.4796ZM11.7264 11.1936C12.0574 10.8384 12.3541 10.518 12.6127 10.2159C13.1572 10.9593 13.7976 11.6203 14.5121 12.1824C13.5895 12.5065 12.6109 12.6768 11.6052 12.6768C10.5162 12.6768 9.46165 12.479 8.46134 12.0927L8.81407 10.4521C8.97325 10.3843 9.13424 10.3257 9.30247 10.2763C9.55029 10.5619 9.82885 10.8622 10.14 11.1955L10.9341 12.0121L11.7264 11.1936Z" fill="white"/>
<path d="M20.5556 16.8185L17.2145 19.4625L17.0572 19.4808C16.8745 19.5028 16.6773 19.5138 16.4747 19.5138C15.44 19.5138 14.2588 19.2281 13.0089 18.9278C11.578 18.5836 9.95728 18.1918 8.34557 18.1918C7.6817 18.1918 7.07392 18.254 6.48422 18.3859L5.625 18.5745L7.57679 9.47982L7.80833 9.35531C8.01092 9.24728 8.21894 9.15207 8.43239 9.06784C8.51922 9.23263 8.62052 9.39742 8.73629 9.56221C8.51198 9.64461 8.2913 9.74349 8.07423 9.86067L6.36483 17.8256C10.3064 16.9577 14.2263 19.1201 16.8166 18.9278C17.2037 18.2009 18.0593 16.3809 18.0593 16.3809L19.9044 16.207L19.0705 9.98884C17.1458 10.2891 15.1506 9.76363 13.2151 9.43771C13.3309 9.26193 13.4322 9.08615 13.5136 8.90854C13.8138 8.96164 14.1123 9.01657 14.409 9.0715C15.5504 9.2839 16.7298 9.50545 17.8549 9.50545C18.2565 9.50545 18.6255 9.47799 18.9836 9.42306L19.5534 9.33334L20.5556 16.8185ZM10.9323 5.27765C9.66063 5.27765 8.62956 6.32133 8.62956 7.60853C8.62956 8.82249 9.43271 9.59151 10.8491 11.1241C10.8672 11.1442 10.9323 11.2083 10.9323 11.2083C10.9323 11.2083 10.9992 11.1424 11.0155 11.1241C12.4318 9.59151 13.235 8.82249 13.235 7.60853C13.235 6.32133 12.2057 5.27765 10.9323 5.27765ZM10.9323 10.377C9.69681 9.04587 9.19574 8.46544 9.19574 7.60853C9.19574 6.63809 9.97537 5.85076 10.9323 5.85076C11.8892 5.85076 12.6688 6.63992 12.6688 7.60853C12.6706 8.46544 12.1677 9.0477 10.9323 10.377ZM11.2271 8.44896H10.6392L10.5651 6.38907H11.2995L11.2271 8.44896ZM11.2271 8.82066H10.6392V9.41573H11.2271V8.82066Z" fill="white"/>
<circle cx="13.0903" cy="12.743" r="11.8264" stroke="white"/>
</svg>
