<svg width="27" height="25" viewBox="0 0 27 25" fill="none" xmlns="http://www.w3.org/2000/svg">
<circle cx="12.9514" cy="12.493" r="11.8264" stroke="white"/>
<g clip-path="url(#clip0_229_223)">
<path d="M13.2267 7.2306C10.3511 7.2306 8.01069 9.48131 8.01069 12.2467C8.01069 15.0122 10.3511 17.2629 13.2267 17.2629C16.1042 17.2629 18.4446 15.0122 18.4446 12.2467C18.4446 9.48131 16.1023 7.2306 13.2267 7.2306ZM13.2267 16.8607C10.5813 16.8607 8.42889 14.7908 8.42889 12.2486C8.42889 9.70454 10.5813 7.63462 13.2267 7.63462C15.8721 7.63462 18.0245 9.70454 18.0245 12.2486C18.0245 14.7908 15.8721 16.8607 13.2267 16.8607ZM13.2267 8.03864C10.8134 8.03864 8.84901 9.92592 8.84901 12.2486C8.84901 14.5694 10.8134 16.4585 13.2267 16.4585C15.64 16.4585 17.6044 14.5694 17.6044 12.2486C17.6044 9.92592 15.64 8.03864 13.2267 8.03864ZM13.2267 15.7077C11.2431 15.7077 9.62979 14.1561 9.62979 12.2486C9.62979 10.341 11.2431 8.78949 13.2267 8.78949C15.2103 8.78949 16.8255 10.341 16.8255 12.2486C16.8255 14.1543 15.2103 15.7077 13.2267 15.7077ZM7.74404 10.1657C7.74404 10.6122 7.58866 10.9443 7.15319 11.1859L6.79254 11.376V11.9589H6.09042V11.3815L5.71442 11.1804C5.25977 10.8926 5.13892 10.6214 5.13892 10.1657V7.39848H5.52642V10.1141C5.52642 10.2082 5.60508 10.2838 5.70291 10.2838C5.79883 10.2838 5.8794 10.2082 5.8794 10.1141V7.39848H6.26883V10.3853C6.26883 10.4794 6.34748 10.555 6.44532 10.555C6.54315 10.555 6.6218 10.4794 6.6218 10.3853V7.39848H7.01123V10.1141C7.01123 10.2082 7.08988 10.2838 7.18772 10.2838C7.28556 10.2838 7.36421 10.2082 7.36421 10.1141V7.39848H7.74596L7.74404 10.1657ZM19.8891 11.3501H19.1698V7.90028C19.1698 6.76385 19.8527 6.76385 20.5913 6.76385L20.5932 11.9755H19.8891V11.3501Z" fill="#F1F2F2"/>
<path d="M16.225 12.2467C16.225 13.8388 14.8822 15.1302 13.2267 15.1302C11.5711 15.1302 10.2283 13.8388 10.2283 12.2467C10.2283 10.6546 11.5711 9.36322 13.2267 9.36322C14.8822 9.36322 16.225 10.6546 16.225 12.2467ZM6.06927 12.5345C5.98487 12.6212 5.93115 12.7374 5.93115 12.8647V17.7296C5.93115 18.0008 6.15944 18.2203 6.44143 18.2203C6.72343 18.2203 6.95172 18.0008 6.95172 17.7296V12.8666C6.95172 12.7374 6.898 12.6231 6.81551 12.5364H6.06927V12.5345ZM20.7274 12.8002C20.7121 12.7042 20.666 12.6194 20.6008 12.5511H19.8853C19.8028 12.636 19.751 12.7485 19.751 12.874V12.9367C19.7491 12.9514 19.7471 12.9662 19.7471 12.9828V17.7333C19.7471 18.0045 19.9754 18.224 20.2555 18.224C20.5375 18.224 20.7658 18.0045 20.7658 17.7333V12.981C20.7639 12.9164 20.7504 12.8555 20.7274 12.8002Z" fill="#F1F2F2"/>
</g>
<g clip-path="url(#clip1_229_223)">
<path d="M23.9861 0.166626C22.3993 0.166626 21.1111 1.45482 21.1111 3.04163C21.1111 4.62843 22.3993 5.91663 23.9861 5.91663C25.5729 5.91663 26.8611 4.62843 26.8611 3.04163C26.8611 1.45482 25.5729 0.166626 23.9861 0.166626ZM25.9028 3.43399H24.4028V5.01385H23.5659V3.43399H22.0659V2.6319H23.5659V1.06593H24.4028V2.6319H25.9028V3.43399Z" fill="white"/>
</g>
<defs>
<clipPath id="clip0_229_223">
<rect width="15.625" height="11.4583" fill="white" transform="translate(5.13892 6.76385)"/>
</clipPath>
<clipPath id="clip1_229_223">
<rect width="5.74653" height="5.74653" fill="white" transform="translate(21.1111 0.166626)"/>
</clipPath>
</defs>
</svg>
