<svg width="26" height="26" viewBox="0 0 26 26" fill="none" xmlns="http://www.w3.org/2000/svg">
<path d="M19.1752 16.7916H7.14464V16.1049H19.1735V16.7916H19.1752ZM9.61491 12.1149C9.76244 12.1741 9.84135 12.2705 9.88767 12.3635C11.339 11.7732 12.8451 11.1744 14.2432 10.6484C13.3529 10.5165 12.5604 10.3964 11.8605 10.2898C9.47767 9.92957 8.16363 9.72998 7.37108 9.72998C7.03485 9.72998 6.79125 9.76719 6.60427 9.845C6.13251 10.0429 5.81687 10.2036 5.80314 10.2087L5.34854 10.4387L5.82544 10.6264C5.85632 10.6383 8.93044 11.8392 9.61491 12.1149Z" fill="white"/>
<path d="M21.9954 10.2374C21.8771 9.77056 21.3058 9.69276 19.9266 9.5084C19.8889 9.50332 19.8442 9.49994 19.7945 9.49994C18.3604 9.49994 11.9188 12.0912 8.62337 13.4561C8.47413 13.3986 8.32831 13.3411 8.19279 13.287C6.87703 12.7745 6.15139 12.492 5.56984 12.492C5.39486 12.492 5.23533 12.5174 5.08265 12.5715L5.06893 12.5766L4.30554 12.9521L7.10175 14.904C7.10175 14.904 8.36605 14.8752 8.61137 14.8685C9.41764 14.8465 11.447 14.811 14.106 13.9027C15.4081 13.4578 16.0719 13.2244 18.417 12.3804C21.6112 11.2319 22.1275 10.7567 21.9954 10.2374Z" fill="white"/>
<circle cx="13.1598" cy="13.1457" r="11.8264" stroke="white"/>
</svg>
