<svg width="26" height="26" viewBox="0 0 26 26" fill="none" xmlns="http://www.w3.org/2000/svg">
<path d="M21.5972 17.1119C21.5972 17.5083 21.2764 17.8332 20.8799 17.8332H5.64781C5.25136 17.8309 4.93054 17.5083 4.93054 17.1119C4.93054 16.7156 5.25136 16.3929 5.64781 16.3929H20.8822C21.2764 16.3906 21.5972 16.7133 21.5972 17.1119ZM13.265 7.23747C13.5056 7.23747 13.7463 7.24899 13.9823 7.27204V6.74893C13.9823 6.35027 13.6615 6.02765 13.265 6.02765C12.8709 6.02765 12.5478 6.35027 12.5478 6.74893V7.27204C12.7838 7.24899 13.0221 7.23747 13.265 7.23747Z" fill="white"/>
<path d="M13.265 7.95645C9.351 7.95645 6.168 11.1573 6.168 15.0932C6.168 15.2891 6.17716 15.4804 6.1932 15.6717H20.3368C20.3529 15.4804 20.362 15.2868 20.362 15.0932C20.362 11.1596 17.179 7.95645 13.265 7.95645ZM12.0711 9.89447C10.1622 10.3369 8.61311 11.8555 8.12501 13.7636C8.08376 13.9272 7.9371 14.0332 7.77898 14.0332C7.74919 14.0332 7.7194 14.0309 7.6896 14.0217C7.49711 13.9733 7.38253 13.7751 7.43295 13.5839C7.98751 11.42 9.74744 9.69629 11.913 9.19162C12.1078 9.14553 12.298 9.26767 12.3415 9.46124C12.3851 9.65711 12.2636 9.84838 12.0711 9.89447Z" fill="white"/>
<circle cx="13.0903" cy="13.1457" r="11.8264" stroke="white"/>
</svg>
