<svg width="26" height="26" viewBox="0 0 26 26" fill="none" xmlns="http://www.w3.org/2000/svg">
<path d="M11.8037 19.1134C11.588 19.1134 11.4485 18.9167 11.4485 18.6119C11.4485 18.3021 11.588 18.1022 11.8037 18.1022C12.0444 18.1022 12.1523 18.3546 12.1523 18.6037C12.1523 18.9135 12.0145 19.1134 11.8037 19.1134ZM7.08337 16.9189V17.4302H7.92819V20.0296C7.92819 20.1279 8.00952 20.2082 8.10911 20.2082H18.2088C18.31 20.2082 18.3913 20.1279 18.3913 20.0296V17.4319H19.2362V16.9205H7.08337V16.9189ZM10.5739 19.4854H10.0942V18.7955H9.57634V19.4854H9.09667V17.7334H9.57634V18.3661H10.0942V17.7334H10.5739V19.4854ZM11.7822 19.5117C11.2892 19.5117 10.9456 19.1445 10.9456 18.6185C10.9456 18.0792 11.3008 17.7039 11.8104 17.7039C12.3149 17.7039 12.6552 18.0612 12.6552 18.5922C12.6552 19.1511 12.3133 19.5117 11.7822 19.5117ZM14.2137 18.1481H13.7573V19.4838H13.2776V18.1481H12.8262V17.7334H14.2137V18.1481ZM15.8054 19.4854H14.6386V17.7334H15.7706V18.1415H15.1183V18.3808H15.7324V18.7873H15.1183V19.0757H15.8054V19.4854ZM17.3805 19.4854H16.237V17.7334H16.7166V19.0692H17.3805V19.4854ZM7.56139 11.5809L8.12736 11.2531L8.69334 11.5809L8.55226 10.9483L9.04355 10.5173L8.38961 10.4534L8.1257 9.86007L7.86346 10.4534L7.20952 10.5173L7.69915 10.9483L7.56139 11.5809ZM10.0494 9.23564L10.6153 8.90786L11.1813 9.23564L11.0402 8.60302L11.5315 8.17198L10.8776 8.10806L10.6137 7.51477L10.3498 8.10806L9.69584 8.17198L10.1871 8.60302L10.0494 9.23564ZM12.5938 6.99851L13.1598 6.67073L13.7257 6.99851L13.5847 6.36589L14.076 5.93486L13.4237 5.87258L13.1598 5.27765L12.8959 5.87258L12.2419 5.93649L12.7332 6.36753L12.5938 6.99851ZM15.1382 9.23564L15.7042 8.90786L16.2702 9.23564L16.1307 8.60302L16.622 8.17198L15.9681 8.10806L15.7058 7.51477L15.4419 8.10806L14.788 8.17198L15.2793 8.60302L15.1382 9.23564ZM17.6262 11.5809L18.1922 11.2531L18.7581 11.5809L18.6171 10.9483L19.1083 10.5173L18.4544 10.4534L18.1922 9.86007L17.9283 10.4534L17.2743 10.5173L17.7656 10.9483L17.6262 11.5809Z" fill="white"/>
<path d="M12.1274 7.67867V16.3994H12.6618V15.3832C12.6618 15.1013 12.8859 14.8702 13.1598 14.8702C13.4336 14.8702 13.6577 15.1013 13.6577 15.3832V16.3994H14.1921V7.67867H12.1274ZM13.6577 13.7427H12.6618V12.7593H13.6577V13.7427ZM13.6577 11.4564H12.6618V10.473H13.6577V11.4564ZM13.6577 9.16189H12.6618V8.17854H13.6577V9.16189ZM7.14147 12.325V16.4026H9.11326V12.325H7.14147ZM8.62529 13.7427H7.62944V12.7593H8.62529V13.7427ZM9.63277 10.0174V16.4043H11.5979V10.0174H9.63277ZM11.1149 13.7427H10.1191V12.7593H11.1149V13.7427ZM11.1149 11.4564H10.1191V10.473H11.1149V11.4564ZM14.7216 10.0174V16.4043H16.6884V10.0174H14.7216ZM16.2004 13.7427H15.2046V12.7593H16.2004V13.7427ZM16.2004 11.4564H15.2046V10.473H16.2004V11.4564ZM17.2063 12.325V16.4026H19.1781V12.325H17.2063ZM18.6917 13.7427H17.6959V12.7593H18.6917V13.7427Z" fill="white"/>
<circle cx="13.1598" cy="12.743" r="11.8264" stroke="white"/>
</svg>
