<svg width="26" height="26" viewBox="0 0 26 26" fill="none" xmlns="http://www.w3.org/2000/svg">
<path d="M21.2209 12.0654L16.0442 7.76385H10.8737L9.31581 9.06342V7.78005H7.71702V10.3994L5.71955 12.0654H5.13892V12.8872H6.82562V18.875H20.0719V12.8872H21.8056V12.0654H21.2209ZM19.2418 18.0511L19.2438 18.0673L7.65773 18.0511V11.5249L10.8737 8.84076L15.7171 12.8872H19.2418V18.0511Z" fill="white"/>
<path d="M10.2869 15.8022C10.3524 15.9054 10.3851 16.037 10.3851 16.1908C10.3851 16.3467 10.3585 16.4803 10.3074 16.5936C10.2542 16.707 10.1827 16.8001 10.0886 16.875C9.99458 16.9499 9.88008 17.0066 9.74719 17.041C9.6143 17.0774 9.4671 17.0956 9.30763 17.0956C9.09705 17.0956 8.911 17.0774 8.75153 17.0369C8.59001 16.9985 8.47348 16.958 8.39783 16.9195L8.58183 16.4337C8.61455 16.4499 8.65544 16.4681 8.7045 16.4884C8.75357 16.5086 8.80877 16.5268 8.87011 16.543C8.93144 16.5592 8.99687 16.5734 9.06638 16.5855C9.13589 16.5957 9.2054 16.6017 9.279 16.6017C9.45074 16.6017 9.58159 16.5734 9.67359 16.5167C9.76559 16.46 9.81057 16.373 9.81057 16.2576C9.81057 16.1685 9.77786 16.0957 9.71244 16.041C9.64701 15.9843 9.56319 15.9337 9.46505 15.8892C9.36487 15.8447 9.25652 15.7961 9.13998 15.7475C9.02344 15.6989 8.91509 15.6402 8.81695 15.5673C8.71677 15.4965 8.63499 15.4074 8.56957 15.3022C8.50414 15.1969 8.47143 15.0613 8.47143 14.8993C8.47143 14.7576 8.49597 14.6362 8.54299 14.5309C8.59001 14.4257 8.65748 14.3406 8.74744 14.2698C8.83535 14.201 8.93962 14.1483 9.06024 14.116C9.18087 14.0836 9.31581 14.0653 9.46301 14.0653C9.63475 14.0653 9.79626 14.0795 9.94755 14.1079C10.0988 14.1382 10.2236 14.1807 10.3217 14.2354L10.1418 14.7151C10.0804 14.6767 9.9864 14.6423 9.86373 14.6099C9.74106 14.5775 9.60612 14.5613 9.46301 14.5613C9.32807 14.5613 9.22585 14.5876 9.15429 14.6402C9.08273 14.6929 9.04593 14.7637 9.04593 14.8528C9.04593 14.9358 9.07864 15.0066 9.14407 15.0613C9.20949 15.1159 9.29332 15.1686 9.39145 15.2151C9.49163 15.2637 9.59999 15.3103 9.71653 15.3609C9.83306 15.4115 9.94142 15.4722 10.0396 15.5431C10.1377 15.6119 10.2215 15.6989 10.2869 15.8022ZM12.4214 14.122H12.9979V17.039H12.4214V15.8183H11.3439V17.039H10.7674V14.122H11.3439V15.3082H12.4214V14.122ZM15.2142 14.1726C15.0567 14.1018 14.8748 14.0653 14.6642 14.0653C14.2635 14.0653 13.9547 14.1969 13.738 14.4581C13.5213 14.7192 13.415 15.0937 13.415 15.5795C13.415 15.8082 13.4395 16.0147 13.4907 16.1989C13.5397 16.3851 13.6174 16.5451 13.7196 16.6787C13.8219 16.8123 13.9507 16.9155 14.1081 16.9863C14.2655 17.0592 14.4495 17.0956 14.6642 17.0956C15.0629 17.0956 15.3695 16.9641 15.5883 16.7029C15.805 16.4398 15.9154 16.0653 15.9154 15.5795C15.9154 15.3528 15.8888 15.1443 15.8398 14.958C15.7887 14.7718 15.713 14.6119 15.6087 14.4783C15.5024 14.3467 15.3716 14.2435 15.2142 14.1726ZM15.1385 16.3507C15.0281 16.5086 14.8686 16.5876 14.6642 16.5876C14.5517 16.5876 14.4556 16.5633 14.3739 16.5127C14.2921 16.4641 14.2267 16.3932 14.1735 16.3042C14.1224 16.2151 14.0836 16.1098 14.057 15.9864C14.0324 15.8629 14.0181 15.7273 14.0181 15.5795C14.0181 15.2313 14.0754 14.9783 14.1858 14.8143C14.2982 14.6524 14.4556 14.5714 14.6621 14.5714C14.7787 14.5714 14.8789 14.5957 14.9606 14.6483C15.0424 14.6989 15.1078 14.7718 15.159 14.8629C15.2101 14.954 15.2469 15.0613 15.2694 15.1848C15.2939 15.3062 15.3062 15.4378 15.3062 15.5795C15.3082 15.9358 15.251 16.1928 15.1385 16.3507ZM16.9029 16.0349C16.9152 16.037 16.9397 16.041 16.9724 16.043C17.0051 16.0451 17.0378 16.0471 17.0705 16.0491C17.1033 16.0511 17.136 16.0511 17.1666 16.0511C17.1973 16.0511 17.2198 16.0511 17.2341 16.0511C17.3793 16.0511 17.5203 16.0329 17.6573 15.9965C17.7923 15.96 17.9149 15.9013 18.0212 15.8224C18.1276 15.7414 18.2134 15.6382 18.2788 15.5107C18.3422 15.3852 18.3749 15.2293 18.3749 15.0471C18.3749 14.8447 18.3381 14.6807 18.2645 14.5532C18.1889 14.4277 18.0948 14.3285 17.9763 14.2577C17.8577 14.1868 17.7248 14.1402 17.5776 14.116C17.4304 14.0917 17.2832 14.0815 17.138 14.0815C16.999 14.0815 16.8579 14.0876 16.7169 14.0998C16.5758 14.1119 16.4449 14.1301 16.3264 14.1524V17.039H16.9029V16.0349ZM16.9029 14.5937C16.9336 14.5876 16.9745 14.5836 17.0235 14.5795C17.0746 14.5755 17.1278 14.5734 17.183 14.5734C17.2566 14.5734 17.3261 14.5795 17.3977 14.5937C17.4672 14.6078 17.5306 14.6321 17.5858 14.6686C17.641 14.705 17.6839 14.7516 17.7187 14.8123C17.7514 14.873 17.7677 14.9479 17.7677 15.039C17.7677 15.1483 17.7493 15.2354 17.7146 15.3001C17.6798 15.3669 17.6328 15.4196 17.5735 15.456C17.5142 15.4924 17.4488 15.5188 17.3752 15.5329C17.2995 15.5471 17.2259 15.5552 17.1503 15.5552C17.1401 15.5552 17.1217 15.5552 17.0971 15.5552C17.0726 15.5552 17.0481 15.5552 17.0235 15.5532C16.999 15.5532 16.9745 15.5491 16.952 15.5471C16.9295 15.5451 16.9131 15.541 16.9029 15.539V14.5937ZM10.8737 9.98041L13.2024 11.9257L12.3008 11.9277V13.205H9.44665V11.9277L8.54503 11.9257L10.8737 9.98041Z" fill="white"/>
<circle cx="12.9514" cy="13.1457" r="11.8264" stroke="white"/>
</svg>
