<svg width="26" height="26" viewBox="0 0 26 26" fill="none" xmlns="http://www.w3.org/2000/svg">
<path d="M18.2675 9.47499L16.7569 8.09231L16.325 6.12655L14.9464 6.4331L14.0273 5.59277C13.5699 5.17261 12.821 5.17261 12.3636 5.59277L10.3169 7.46635L8.07668 7.96369L8.35964 9.25419L8.1171 9.47499C7.65969 9.89515 7.29163 10.2188 7.29163 10.7676C7.29163 10.7698 7.29163 10.7912 7.29163 10.8191L9.74465 12.4547L8.87024 8.47389L15.8208 6.924L16.9782 12.1996L19.0972 10.7912C19.0972 10.7783 19.0972 10.7698 19.0972 10.7676C19.0972 10.1524 18.7249 9.89515 18.2675 9.47499Z" fill="white"/>
<path d="M13.1593 15.5373L19.0972 11.5951C19.0972 13.4622 19.0972 17.9018 19.0972 18.695L15.6017 16.0883L15.206 16.6263L18.1483 18.8193H8.2405L11.1445 16.6499L10.7488 16.1118L7.29163 18.695C7.29163 17.9061 7.29163 13.5073 7.29163 11.623L13.1593 15.5373ZM10.2616 11.8545L10.4042 12.5083L16.0548 11.2521L15.9123 10.5983L10.2616 11.8545ZM15.6208 9.26276L9.96803 10.519L10.1127 11.1728L15.7634 9.91659L15.6208 9.26276ZM15.357 7.91653L9.70422 9.17273L9.84889 9.82655L15.4996 8.57035L15.357 7.91653Z" fill="white"/>
<circle cx="13.0208" cy="12.743" r="11.8264" stroke="white"/>
</svg>
