<svg width="26" height="26" viewBox="0 0 26 26" fill="none" xmlns="http://www.w3.org/2000/svg">
<path d="M21.8734 12.7065V14.874C21.8734 15.4729 21.3905 15.9577 20.7955 15.9577H20.6505C20.6538 15.9246 20.6554 15.8915 20.6554 15.8584C20.6554 15.104 20.044 14.4901 19.2925 14.4901C18.5426 14.4901 17.9312 15.104 17.9312 15.8584C17.9312 15.8915 17.9328 15.9246 17.9361 15.9577H17.4862C17.4895 15.9246 17.4911 15.8915 17.4911 15.8584C17.4911 15.104 16.8797 14.4901 16.1282 14.4901C15.3766 14.4901 14.7668 15.104 14.7668 15.8584C14.7668 15.8915 14.7701 15.9246 14.7718 15.9577H9.33476C9.33641 15.9246 9.33971 15.8915 9.33971 15.8584C9.33971 15.104 8.72827 14.4901 7.97674 14.4901C7.22686 14.4901 6.61543 15.104 6.61543 15.8584C6.61543 15.8915 6.61872 15.9246 6.62037 15.9577H5.98091C5.38431 15.9577 4.90142 15.4729 4.90142 14.874V14.2006C5.88203 14.1724 6.68959 13.7786 7.46913 13.3948C8.19429 13.0391 8.87824 12.7048 9.63471 12.7048L21.8734 12.7065ZM4.75639 11.77C4.8355 11.77 4.91296 11.7303 4.96075 11.6591C5.30685 11.1247 5.58537 10.8153 5.99245 10.8153L7.00437 10.8137C7.13787 10.8137 7.24664 10.7045 7.24664 10.5704C7.24664 10.4364 7.13787 10.3272 7.00437 10.3272H5.99245C5.3019 10.3272 4.88659 10.8765 4.55367 11.3928C4.47951 11.5053 4.51247 11.6558 4.62454 11.7303C4.66574 11.7568 4.71189 11.77 4.75639 11.77Z" fill="white"/>
<path d="M19.2925 14.9253C19.8067 14.9253 20.222 15.3422 20.222 15.8584C20.222 16.3747 19.8067 16.7916 19.2925 16.7916C18.7783 16.7916 18.363 16.3747 18.363 15.8584C18.363 15.3422 18.7783 14.9253 19.2925 14.9253ZM19.2925 16.2704C19.5199 16.2704 19.7045 16.0851 19.7045 15.8584C19.7045 15.6318 19.5199 15.4464 19.2925 15.4464C19.0667 15.4464 18.8821 15.6318 18.8821 15.8584C18.8821 16.0851 19.0667 16.2704 19.2925 16.2704ZM16.1282 14.9253C16.6424 14.9253 17.0593 15.3422 17.0593 15.8584C17.0593 16.3747 16.6424 16.7916 16.1282 16.7916C15.6156 16.7916 15.1986 16.3747 15.1986 15.8584C15.1986 15.3422 15.614 14.9253 16.1282 14.9253ZM16.1282 16.2704C16.3556 16.2704 16.5402 16.0851 16.5402 15.8584C16.5402 15.6318 16.3556 15.4464 16.1282 15.4464C15.9024 15.4464 15.7178 15.6318 15.7178 15.8584C15.7178 16.0851 15.9007 16.2704 16.1282 16.2704ZM7.97674 14.9253C8.49094 14.9253 8.90791 15.3422 8.90791 15.8584C8.90791 16.3747 8.49094 16.7916 7.97674 16.7916C7.46419 16.7916 7.04722 16.3747 7.04722 15.8584C7.04722 15.3422 7.46419 14.9253 7.97674 14.9253ZM7.97674 16.2704C8.20418 16.2704 8.38876 16.0851 8.38876 15.8584C8.38876 15.6318 8.20418 15.4464 7.97674 15.4464C7.75095 15.4464 7.56637 15.6318 7.56637 15.8584C7.56637 16.0851 7.75095 16.2704 7.97674 16.2704ZM9.97257 9.50159H8.23549C7.90587 9.50159 7.54165 9.65216 7.17412 9.91689C7.46419 9.993 7.67844 10.2561 7.67844 10.5688C7.67844 10.9427 7.37519 11.2472 7.00437 11.2472L6.07815 11.2488C6.02541 11.2488 5.97267 11.2621 5.91169 11.2985C5.45188 11.9983 5.07941 12.8438 4.90142 13.7191V13.7671C5.78479 13.7373 6.54456 13.3667 7.2796 13.006C8.0163 12.6453 8.77936 12.2713 9.63471 12.2713H9.97092V9.50159H9.97257ZM20.4099 9.49994L10.406 9.50159V12.2697L21.875 12.273V12.225C21.6674 11.0652 21.4465 9.49994 20.4099 9.49994ZM5.99575 14.864C5.99245 14.6705 5.63482 14.4372 5.20467 14.4438V14.874C5.20467 14.9385 5.21455 15.0014 5.22939 15.0609C5.69085 15.0593 5.99904 15.0543 5.99575 14.864Z" fill="white"/>
<circle cx="13.0208" cy="13.1457" r="11.8264" stroke="white"/>
</svg>
