<svg width="26" height="26" viewBox="0 0 26 26" fill="none" xmlns="http://www.w3.org/2000/svg">
<path d="M13.1348 7.45002C12.9423 7.45002 12.7518 7.4639 12.5633 7.48176V7.05721C12.5633 6.85683 12.6624 6.68225 12.814 6.57909C12.7188 5.84505 12.6236 5.29551 12.6236 5.06141C12.6236 4.77573 12.851 4.54163 13.1348 4.54163C13.4166 4.54163 13.644 4.77573 13.644 5.06339C13.644 5.29749 13.541 5.82124 13.4399 6.58107C13.5896 6.68423 13.6887 6.85882 13.6887 7.05721V7.48176C13.5041 7.4639 13.3194 7.45002 13.1348 7.45002ZM5.91179 8.78716C6.05174 8.53719 6.36468 8.45188 6.60959 8.59671C6.80785 8.71376 7.20244 9.06689 7.79528 9.53708C7.95855 9.45574 8.15487 9.45574 8.32398 9.55493L8.68552 9.76721C8.61749 9.86243 8.55334 9.96163 8.4892 10.0628C8.34925 10.289 8.22679 10.5231 8.12183 10.7631L7.76224 10.5508C7.59313 10.4517 7.494 10.2751 7.48039 10.0886C6.8098 9.80688 6.29665 9.61643 6.09839 9.49938C5.85347 9.35654 5.76989 9.03713 5.91179 8.78716ZM18.138 10.7592C17.9844 10.408 17.7959 10.0747 17.5743 9.76522L17.928 9.55691C18.0972 9.45772 18.2954 9.45772 18.4587 9.53906C19.034 9.08871 19.4519 8.72963 19.6502 8.61258C19.8951 8.46776 20.2061 8.55306 20.348 8.80303C20.4899 9.053 20.4044 9.37043 20.1614 9.51525C19.9612 9.6323 19.4656 9.8049 18.7697 10.0926C18.7561 10.2771 18.657 10.4517 18.4898 10.5508L18.138 10.7592ZM8.11989 15.336C8.27344 15.6891 8.46199 16.0224 8.68163 16.3319L8.32398 16.5422C8.15487 16.6414 7.95467 16.6414 7.79139 16.5601C7.21604 17.0104 6.79814 17.3695 6.59987 17.4865C6.35496 17.6314 6.04396 17.5441 5.90207 17.2941C5.76017 17.0441 5.8457 16.7267 6.08867 16.5819C6.28693 16.4648 6.78259 16.2922 7.47845 16.0046C7.49011 15.8201 7.58924 15.6455 7.75835 15.5463L8.11989 15.336ZM14.9522 12.6359L15.7413 12.1717C15.6208 11.8007 15.4284 11.4634 15.1776 11.1778L14.3865 11.642C14.3068 11.5686 14.2213 11.4991 14.1261 11.4376C13.9861 11.3484 13.8403 11.2809 13.6887 11.2333V10.2989C13.506 10.2612 13.3214 10.2414 13.1328 10.2414C12.9384 10.2414 12.748 10.2671 12.5614 10.3068V11.2353C12.3067 11.3186 12.0696 11.4575 11.8674 11.646L11.0783 11.1817C10.9772 11.2968 10.882 11.4198 10.7984 11.5527C10.6759 11.7511 10.5826 11.9594 10.5146 12.1757L11.3057 12.6419C11.2474 12.9137 11.2454 13.1914 11.3037 13.4592L10.5126 13.9255C10.6312 14.2964 10.8217 14.6337 11.0744 14.9214L11.8655 14.4552C11.9471 14.5305 12.0346 14.602 12.1318 14.6635C12.2698 14.7527 12.4136 14.8182 12.5614 14.8658V15.8002C12.746 15.8399 12.9346 15.8598 13.1231 15.8598C13.3155 15.8598 13.5041 15.834 13.6868 15.7963V14.8678C13.9434 14.7865 14.1824 14.6476 14.3865 14.4571L15.1757 14.9214C15.2768 14.8063 15.374 14.6833 15.4556 14.5484C15.5781 14.352 15.6694 14.1417 15.7394 13.9255L14.9502 13.4592C15.0124 13.1874 15.0124 12.9057 14.9522 12.6359ZM14.1086 13.6814C13.8948 14.0286 13.5274 14.2349 13.125 14.2349C12.9054 14.2349 12.6916 14.1715 12.505 14.0524C12.2426 13.8838 12.0599 13.6199 11.9918 13.3124C11.9238 13.0029 11.9763 12.6855 12.1415 12.4177C12.3553 12.0725 12.7227 11.8642 13.1231 11.8642C13.3427 11.8642 13.5566 11.9277 13.7432 12.0467C14.0056 12.2153 14.1883 12.4792 14.2563 12.7867C14.3263 13.0962 14.2738 13.4136 14.1086 13.6814ZM13.125 18.6511C13.3155 18.6511 13.5021 18.6392 13.6887 18.6193V19.0399C13.6887 19.2403 13.5877 19.4149 13.438 19.5181C13.5332 20.2521 13.6285 20.8016 13.6285 21.0338C13.6285 21.3214 13.4011 21.5555 13.1173 21.5555C12.8354 21.5555 12.608 21.3234 12.608 21.0338C12.608 20.7997 12.7091 20.2759 12.8121 19.5161C12.6624 19.4129 12.5633 19.2383 12.5633 19.0399V18.6174C12.7499 18.6372 12.9365 18.6511 13.125 18.6511ZM20.3402 17.31C20.2003 17.5599 19.8873 17.6453 19.6424 17.5004C19.4442 17.3834 19.0496 17.0302 18.4567 16.5601C18.2935 16.6414 18.0952 16.6414 17.928 16.5422L17.5743 16.3339C17.6423 16.2387 17.7084 16.1395 17.7706 16.0383C17.9106 15.8121 18.033 15.578 18.138 15.34L18.4917 15.5483C18.6608 15.6475 18.76 15.824 18.7716 16.0085C19.4422 16.2922 19.9554 16.4827 20.1536 16.5997C20.3986 16.7426 20.4802 17.06 20.3402 17.31Z" fill="white"/>
<path d="M15.7317 8.83874C13.4536 7.37265 10.4408 8.06899 9.00245 10.3941C7.56602 12.7212 8.24827 15.7963 10.5263 17.2624C12.8044 18.7285 15.8172 18.0341 17.2556 15.707C18.694 13.3819 18.0117 10.3068 15.7317 8.83874ZM15.9708 14.8797C15.3527 15.8816 14.2875 16.4807 13.1251 16.4807C12.4934 16.4807 11.8753 16.2982 11.3369 15.951C10.5788 15.463 10.0521 14.7012 9.85381 13.8084C9.65555 12.9156 9.81105 11.9971 10.2892 11.2214C10.9093 10.2195 11.9725 9.6204 13.1349 9.6204C13.7666 9.6204 14.3847 9.80292 14.9231 10.1501C16.4898 11.1579 16.9602 13.2807 15.9708 14.8797ZM13.5955 13.3501C13.4323 13.614 13.0902 13.6933 12.8316 13.5267C12.5731 13.36 12.4954 13.0109 12.6586 12.747C12.8219 12.4832 13.164 12.4038 13.4225 12.5705C13.6811 12.7371 13.7569 13.0863 13.5955 13.3501Z" fill="white"/>
<circle cx="12.9514" cy="13.0486" r="11.8264" stroke="white"/>
</svg>
