<svg width="28" height="25" viewBox="0 0 28 25" fill="none" xmlns="http://www.w3.org/2000/svg">
<circle cx="13.1598" cy="12.493" r="11.8264" stroke="white"/>
<g clip-path="url(#clip0_229_220)">
<path d="M15.93 10.9953C15.976 10.7601 16.0716 10.5708 16.2026 10.4611C16.176 10.4505 16.1442 10.4416 16.1052 10.4416C15.8857 10.4399 15.5211 10.4399 15.2432 10.4399C15.0644 10.4399 14.8998 10.4576 14.7476 10.4912L15.3689 10.9989H15.93V10.9953Z" fill="white"/>
<path d="M4.96399 14.3828L5.59061 14.3864L6.40487 13.7495L5.55698 13.4099L4.96399 14.3828Z" fill="white"/>
<path d="M16.4786 10.7353C16.4468 10.7353 16.3724 10.8273 16.3264 10.9953H16.6309C16.5849 10.8273 16.5105 10.7353 16.4786 10.7353Z" fill="white"/>
<path d="M16.2575 15.1877C16.2309 15.1771 16.199 15.1682 16.1601 15.1682C16.1371 15.1682 16.1105 15.1682 16.084 15.1682L14.0696 16.4808C14.3192 16.7125 14.7528 16.8788 15.2998 16.8788C15.576 16.8788 15.9406 16.877 16.1619 16.8752C16.2008 16.8752 16.2327 16.8664 16.2592 16.8558C16.0769 16.7001 15.9565 16.3941 15.9565 16.0226C15.9548 15.6494 16.0751 15.3433 16.2575 15.1877Z" fill="white"/>
<path d="M16.5336 15.4636C16.4858 15.4636 16.3424 15.6617 16.3424 16.0226C16.3424 16.3835 16.4858 16.5816 16.5336 16.5816C16.5814 16.5816 16.723 16.3835 16.723 16.0226C16.723 15.6617 16.5814 15.4636 16.5336 15.4636Z" fill="white"/>
<path d="M21.7979 12.9712C21.4209 12.598 20.7482 12.1699 19.7623 11.8409C19.2135 11.664 18.6082 11.5472 17.9957 11.5472H9.30615C8.25292 11.4941 7.54487 11.1386 6.9802 10.4593C6.55714 9.95341 5.32867 8.35254 5.32867 8.35254H4.30554L5.2384 11.5454H5.22601C4.55867 11.5454 4.4383 12.3751 5.23486 12.6793C6.55183 13.1835 8.80697 14.2484 10.4585 14.2484H11.0621C11.0603 15.009 10.5364 15.5998 10.2071 16.0491C9.84957 16.5338 7.95908 18.9165 7.95908 18.9165L9.28667 18.9148L16.4486 14.2501H19.7446C20.511 14.2501 21.9413 13.9512 22.0121 13.3586C22.0227 13.2613 21.9643 13.1375 21.7979 12.9712ZM11.0674 13.2206C10.8391 13.2206 10.6514 13.0349 10.6514 12.8067C10.6514 12.5785 10.8373 12.3928 11.0674 12.3928C11.2958 12.3928 11.4816 12.5785 11.4816 12.8067C11.4816 13.0349 11.2958 13.2206 11.0674 13.2206ZM12.4782 13.2224C12.2481 13.2224 12.0622 13.0366 12.0622 12.8067C12.0622 12.5785 12.2481 12.391 12.4782 12.391C12.7066 12.391 12.8924 12.5767 12.8924 12.8067C12.8942 13.0349 12.7083 13.2224 12.4782 13.2224ZM13.8908 13.2206C13.6624 13.2206 13.4766 13.0349 13.4766 12.8067C13.4766 12.5785 13.6624 12.3928 13.8908 12.3928C14.1209 12.3928 14.3067 12.5785 14.3067 12.8067C14.305 13.0349 14.1191 13.2206 13.8908 13.2206ZM15.3016 13.2224C15.0714 13.2224 14.8874 13.0366 14.8874 12.8067C14.8874 12.5785 15.0732 12.391 15.3016 12.391C15.5299 12.391 15.7158 12.5767 15.7158 12.8067C15.7175 13.0349 15.5317 13.2224 15.3016 13.2224ZM16.7141 13.2224C16.4858 13.2224 16.2999 13.0366 16.2999 12.8067C16.2999 12.5785 16.4858 12.391 16.7141 12.391C16.9442 12.391 17.1301 12.5767 17.1301 12.8067C17.1283 13.0349 16.9425 13.2224 16.7141 13.2224ZM19.4596 13.256C18.9498 13.2401 18.9816 12.605 19.4136 12.605C19.7463 12.605 20.0119 12.552 20.1853 12.4724C20.4845 12.5997 20.7305 12.7289 20.9288 12.8509C20.6863 13.0773 20.0543 13.2737 19.4596 13.256Z" fill="white"/>
<path d="M14.4908 10.9953L10.9948 8.15442L9.66724 8.15265C9.66724 8.15265 10.7983 10.4629 11.032 10.9953H14.4908Z" fill="white"/>
</g>
<g clip-path="url(#clip1_229_220)">
<path d="M24.1945 0.166626C22.6077 0.166626 21.3195 1.45482 21.3195 3.04163C21.3195 4.62843 22.6077 5.91663 24.1945 5.91663C25.7813 5.91663 27.0695 4.62843 27.0695 3.04163C27.0695 1.45482 25.7813 0.166626 24.1945 0.166626ZM26.1111 3.43399H24.6111V5.01385H23.7743V3.43399H22.2743V2.6319H23.7743V1.06593H24.6111V2.6319H26.1111V3.43399Z" fill="white"/>
</g>
<defs>
<clipPath id="clip0_229_220">
<rect width="17.7083" height="10.7639" fill="white" transform="translate(4.30554 8.15265)"/>
</clipPath>
<clipPath id="clip1_229_220">
<rect width="5.74653" height="5.74653" fill="white" transform="translate(21.3195 0.166626)"/>
</clipPath>
</defs>
</svg>
