<svg width="27" height="25" viewBox="0 0 27 25" fill="none" xmlns="http://www.w3.org/2000/svg">
<circle cx="13.0903" cy="12.493" r="11.8264" stroke="white"/>
<g clip-path="url(#clip0_229_221)">
<path d="M10.3062 15.1689C10.3925 15.1689 10.4622 15.2386 10.4622 15.325C10.4622 15.4114 10.3925 15.4811 10.3062 15.4811H6.83646C6.75017 15.4811 6.68048 15.4114 6.68048 15.325C6.68048 15.2386 6.75017 15.1689 6.83646 15.1689H10.3062ZM6.68214 12.106C6.68214 12.1923 6.75183 12.2621 6.83812 12.2621H7.53505C7.53505 12.1624 7.53505 12.0595 7.53505 11.9498H6.83646C6.75183 11.9515 6.68214 12.0213 6.68214 12.106ZM12.8616 14.5809C12.8616 14.4945 12.7919 14.4247 12.7056 14.4247H6.83646C6.75017 14.4247 6.68048 14.4945 6.68048 14.5809C6.68048 14.6672 6.75017 14.737 6.83646 14.737H12.7056C12.7919 14.737 12.8616 14.6672 12.8616 14.5809ZM18.2413 14.4247V15.9678L6.1445 15.9794L6.13289 11.42L7.53505 11.4183C7.53505 11.2472 7.53505 11.0745 7.53505 10.9001H6.13289C5.85246 10.9017 5.62512 11.1293 5.62512 11.4084V15.9778C5.62512 16.2585 5.85246 16.486 6.13289 16.486H18.2529C18.5333 16.486 18.7607 16.2585 18.7607 15.9778V14.4231L18.2413 14.4247ZM17.5112 14.4247H14.0414C13.9551 14.4247 13.8854 14.4945 13.8854 14.5809C13.8854 14.6672 13.9551 14.737 14.0414 14.737H17.5112C17.5974 14.737 17.6671 14.6672 17.6671 14.5809C17.6671 14.4945 17.5974 14.4247 17.5112 14.4247ZM6.83646 13.9447H7.69601C7.66282 13.8932 7.63295 13.8417 7.60972 13.7836C7.60972 13.7836 7.58981 13.747 7.5699 13.6324H6.83646C6.75017 13.6324 6.68048 13.7022 6.68048 13.7886C6.68214 13.8749 6.75183 13.9447 6.83646 13.9447ZM11.642 15.4795H17.5112C17.5974 15.4795 17.6671 15.4097 17.6671 15.3233C17.6671 15.237 17.5974 15.1672 17.5112 15.1672H11.642C11.5557 15.1672 11.486 15.237 11.486 15.3233C11.486 15.4097 11.5557 15.4795 11.642 15.4795Z" fill="white"/>
<path d="M17.77 10.6842C17.7617 10.5413 17.7534 10.4333 17.7484 10.3636H17.7401C17.7219 10.4084 17.687 10.5048 17.6323 10.6543C17.5775 10.8038 17.536 10.9084 17.5062 10.9715L17.2755 11.5163H17.8198L17.7883 10.9665C17.7849 10.92 17.78 10.827 17.77 10.6842Z" fill="white"/>
<path d="M20.3901 8.49994H8.28008C7.99633 8.49994 7.76733 8.72916 7.76733 9.01319V13.5726C7.76733 13.8567 7.99633 14.0859 8.28008 14.0859H20.3901C20.6739 14.0859 20.9029 13.8567 20.9029 13.5726V9.01319C20.9029 8.72916 20.6722 8.49994 20.3901 8.49994ZM10.3642 12.7853L9.99254 9.80051H10.7708L10.872 11.0047C10.8952 11.2406 10.9201 11.5828 10.9467 12.0279H10.955C11.0678 11.7306 11.2105 11.3951 11.3848 11.023L11.9307 9.80051H12.7753L11.2487 12.7853H10.3642ZM12.5314 12.7853L13.0972 9.80051H13.8489L13.2831 12.7853H12.5314ZM15.7572 12.3767C15.6327 12.5395 15.4784 12.6558 15.2926 12.7239C15.1067 12.7936 14.8993 12.8285 14.6686 12.8285C14.2555 12.8202 13.9518 12.7471 13.7576 12.6109L14.0049 11.9914C14.2256 12.1159 14.4712 12.1774 14.74 12.1774C14.8528 12.1807 14.9457 12.1591 15.0237 12.1159C15.1017 12.0728 15.1382 12.008 15.1382 11.9249C15.1382 11.8568 15.1084 11.7987 15.0503 11.7472C14.9906 11.6974 14.891 11.6359 14.7499 11.5612C14.5641 11.4615 14.4131 11.3486 14.2969 11.224C14.1808 11.0994 14.1227 10.9466 14.1227 10.7639C14.1227 10.4566 14.2405 10.2124 14.4795 10.0281C14.7168 9.84535 15.0138 9.754 15.3705 9.754C15.6692 9.754 15.9181 9.80051 16.1189 9.89518L15.8883 10.528C15.7024 10.44 15.5116 10.3985 15.3174 10.4035C15.188 10.4035 15.0885 10.425 15.0204 10.4699C14.9524 10.5147 14.9192 10.5696 14.9192 10.6377C14.9192 10.6526 14.9209 10.6676 14.9258 10.6825C14.9308 10.6974 14.9375 10.7124 14.9474 10.7273C14.9574 10.7423 14.9673 10.7556 14.9789 10.7672C14.9889 10.7788 15.0038 10.7921 15.0237 10.8071C15.0437 10.822 15.0602 10.8353 15.0752 10.8453C15.0901 10.8552 15.11 10.8685 15.1366 10.8835C15.1631 10.8984 15.1847 10.9117 15.2013 10.9217C15.2179 10.9317 15.2411 10.9466 15.2726 10.9632C15.3042 10.9798 15.3274 10.9948 15.3457 11.0031C15.7472 11.2107 15.948 11.4715 15.948 11.7871C15.943 12.0196 15.8816 12.2156 15.7572 12.3767ZM17.8812 12.7853L17.8463 12.086H17.0631L16.7661 12.7853H15.9563L17.3717 9.80051H18.3591L18.6777 12.7853H17.8812Z" fill="white"/>
</g>
<g clip-path="url(#clip1_229_221)">
<path d="M24.125 0.166626C22.5382 0.166626 21.25 1.45482 21.25 3.04163C21.25 4.62843 22.5382 5.91663 24.125 5.91663C25.7118 5.91663 27 4.62843 27 3.04163C27 1.45482 25.7118 0.166626 24.125 0.166626ZM26.0417 3.43399H24.5417V5.01385H23.7049V3.43399H22.2049V2.6319H23.7049V1.06593H24.5417V2.6319H26.0417V3.43399Z" fill="white"/>
</g>
<defs>
<clipPath id="clip0_229_221">
<rect width="15.2778" height="7.98611" fill="white" transform="translate(5.62512 8.49994)"/>
</clipPath>
<clipPath id="clip1_229_221">
<rect width="5.74653" height="5.74653" fill="white" transform="translate(21.25 0.166626)"/>
</clipPath>
</defs>
</svg>
