<svg width="73" height="73" viewBox="0 0 73 73" fill="none" xmlns="http://www.w3.org/2000/svg">
<path fill-rule="evenodd" clip-rule="evenodd" d="M37.3909 19.1409C38.5787 17.953 40.5046 17.953 41.6925 19.1409L56.9008 34.3492C58.0886 35.5371 58.0886 37.4629 56.9008 38.6508L41.6925 53.8591C40.5046 55.047 38.5787 55.047 37.3909 53.8591C36.203 52.6713 36.203 50.7454 37.3909 49.5576L50.4484 36.5L37.3909 23.4425C36.203 22.2546 36.203 20.3287 37.3909 19.1409Z" fill="white"/>
<path fill-rule="evenodd" clip-rule="evenodd" d="M16.0992 19.1409C17.2871 17.953 19.2129 17.953 20.4008 19.1409L35.6091 34.3492C36.797 35.5371 36.797 37.4629 35.6091 38.6508L20.4008 53.8591C19.2129 55.047 17.2871 55.047 16.0992 53.8591C14.9114 52.6713 14.9114 50.7454 16.0992 49.5576L29.1568 36.5L16.0992 23.4425C14.9114 22.2546 14.9114 20.3287 16.0992 19.1409Z" fill="white"/>
</svg>
