<svg width="67" height="68" viewBox="0 0 67 68" fill="none" xmlns="http://www.w3.org/2000/svg">
<path fill-rule="evenodd" clip-rule="evenodd" d="M17.4802 34.8136C18.5649 33.7288 20.3237 33.7288 21.4085 34.8136L33.3332 46.7383L45.2579 34.8136C46.3427 33.7288 48.1015 33.7288 49.1863 34.8136C50.2711 35.8984 50.2711 37.6572 49.1863 38.742L35.2974 52.6308C34.2126 53.7156 32.4538 53.7156 31.369 52.6308L17.4802 38.742C16.3954 37.6572 16.3954 35.8984 17.4802 34.8136Z" fill="white"/>
<path fill-rule="evenodd" clip-rule="evenodd" d="M17.4802 15.3691C18.5649 14.2843 20.3237 14.2843 21.4085 15.3691L33.3332 27.2938L45.2579 15.3691C46.3427 14.2843 48.1015 14.2843 49.1863 15.3691C50.2711 16.4539 50.2711 18.2127 49.1863 19.2975L35.2974 33.1864C34.2126 34.2712 32.4538 34.2712 31.369 33.1864L17.4802 19.2975C16.3954 18.2127 16.3954 16.4539 17.4802 15.3691Z" fill="white"/>
</svg>
