<svg width="66" height="66" viewBox="0 0 66 66" fill="none" xmlns="http://www.w3.org/2000/svg">
<path fill-rule="evenodd" clip-rule="evenodd" d="M32.1945 17.3055C33.2685 18.3794 33.2685 20.1206 32.1945 21.1945L20.3891 33L32.1945 44.8055C33.2685 45.8794 33.2685 47.6206 32.1945 48.6945C31.1206 49.7685 29.3794 49.7685 28.3055 48.6945L14.5555 34.9445C13.4815 33.8706 13.4815 32.1294 14.5555 31.0555L28.3055 17.3055C29.3794 16.2315 31.1206 16.2315 32.1945 17.3055Z" fill="white"/>
<path fill-rule="evenodd" clip-rule="evenodd" d="M51.4445 17.3055C52.5185 18.3794 52.5185 20.1206 51.4445 21.1945L39.6391 33L51.4445 44.8055C52.5185 45.8794 52.5185 47.6206 51.4445 48.6945C50.3706 49.7685 48.6294 49.7685 47.5555 48.6945L33.8055 34.9445C32.7315 33.8706 32.7315 32.1294 33.8055 31.0555L47.5555 17.3055C48.6294 16.2315 50.3706 16.2315 51.4445 17.3055Z" fill="white"/>
</svg>
