<svg width="357" height="60" viewBox="0 0 357 60" fill="none" xmlns="http://www.w3.org/2000/svg">
<path fill-rule="evenodd" clip-rule="evenodd" d="M58.9085 57.9091L74.7798 55.6267C75.1307 55.5748 75.3704 55.4838 74.7327 55.4275L58.7544 54.0806C57.5002 53.9766 56.5201 54.9728 56.5201 56.0079C56.5158 56.926 57.4574 58.117 58.9085 57.9091ZM33.8859 59.334H3.40173C1.0433 59.334 -0.159462 57.3245 1.3044 55.198L11.0035 41.1137C12.2405 43.4221 13.8842 45.8604 16.0371 48.1385C19.7695 52.0927 25.2954 52.9329 29.9566 55.6137C31.887 56.7268 33.2524 57.9481 33.8859 59.334ZM42.836 59.334H40.7986H38.7612C39.3775 56.1161 38.0592 53.5565 34.9945 52.0277L40.7986 47.5408L46.6026 52.0277C43.538 53.5565 42.2196 56.1161 42.836 59.334ZM70.5936 41.1137L80.2928 55.198C81.7566 57.3245 80.5539 59.334 78.1954 59.334H47.7112C48.3447 57.9481 49.7101 56.7268 51.6405 55.6181C56.306 52.9372 61.8276 52.0927 65.56 48.1428C67.713 45.8604 69.3566 43.4221 70.5936 41.1137ZM40.7986 0C41.9928 0.0649643 42.9772 0.627988 43.7563 1.71939L62.0545 28.7142L66.5702 35.2756C64.7339 43.9288 59.084 48.4244 53.3398 48.4763C49.4533 48.511 41.6846 45.6092 42.8488 35.098C43.1313 32.5514 45.4298 29.5414 48.3576 29.4072C51.1526 29.2816 53.8577 31.0789 54.1959 33.9373C54.7052 38.212 50.4421 40.4251 48.1007 41.6118C51.358 42.8374 54.2087 42.426 56.3574 40.6676C58.0481 39.286 59.3365 36.7091 59.2038 33.8854C59.0069 29.6757 56.6913 26.9472 53.7122 25.5569C51.1868 24.3789 48.0751 24.1754 44.9804 24.8726C44.9804 21.5162 43.8247 17.8868 40.7943 14.1362C37.7596 17.8868 36.6082 21.5162 36.6082 24.8726C33.5135 24.171 30.4018 24.3789 27.8764 25.5569C24.8973 26.9472 22.5817 29.6757 22.3848 33.8854C22.2521 36.7091 23.5405 39.286 25.2312 40.6676C27.3799 42.4217 30.2306 42.8331 33.4879 41.6118C31.1465 40.4251 26.8834 38.212 27.3927 33.9373C27.7309 31.0832 30.4403 29.2816 33.231 29.4072C36.1588 29.5371 38.4573 32.5514 38.7398 35.098C39.904 45.6092 32.1353 48.511 28.2488 48.4763C22.5046 48.4244 16.8547 43.9288 15.0184 35.2756L19.5427 28.7142L37.8409 1.71939C38.6199 0.627988 39.6044 0.0649643 40.7986 0ZM22.6887 57.9091L6.8174 55.6267C6.46642 55.5748 6.22672 55.4838 6.86448 55.4275L22.8428 54.0806C24.0969 53.9766 25.0771 54.9728 25.0771 56.0079C25.0771 56.926 24.1397 58.117 22.6887 57.9091Z" fill="white"/>
<path d="M127.235 58.5067H116.59L103.488 39.3336V58.5067H94.1311V17.0812H103.488V35.072L116.003 17.0812H126.648L112.844 37.2591L127.235 58.5067Z" fill="white"/>
<path d="M159.401 58.5067L157.355 51.9973H142.147L140.101 58.5067H129.867L143.787 17.0812H155.716L169.635 58.5067H159.401ZM144.955 43.1189H154.547L149.753 27.9086L144.955 43.1189Z" fill="white"/>
<path d="M185.25 49.3944H201.215V58.5067H173.141V51.1701L188.815 26.1979H173.432V17.0812H200.92V24.4178L185.25 49.3944Z" fill="white"/>
<path d="M235.137 17.0812V26.1935H224.611V58.5024H215.255V26.1935H204.729V17.0812H235.137Z" fill="white"/>
<path d="M272.979 53.1191C268.844 57.2595 263.814 59.334 257.891 59.334C251.962 59.334 246.933 57.2639 242.803 53.1191C238.668 48.9787 236.605 43.8682 236.605 37.7919C236.605 31.7156 238.672 26.6094 242.803 22.4647C246.933 18.3243 251.962 16.2498 257.891 16.2498C263.819 16.2498 268.848 18.3199 272.979 22.4647C277.109 26.6051 279.176 31.7156 279.176 37.7919C279.176 43.8682 277.109 48.9787 272.979 53.1191ZM249.377 46.6703C251.658 48.9571 254.496 50.1048 257.886 50.1048C261.276 50.1048 264.114 48.9614 266.395 46.6703C268.677 44.3836 269.815 41.4256 269.815 37.7919C269.815 34.1626 268.677 31.2045 266.395 28.9135C264.114 26.6267 261.276 25.4833 257.886 25.4833C254.496 25.4833 251.658 26.6267 249.377 28.9135C247.096 31.2002 245.957 34.1626 245.957 37.7919C245.957 41.4256 247.1 44.3836 249.377 46.6703Z" fill="white"/>
<path d="M312.456 55.4881C309.494 58.052 305.71 59.334 301.109 59.334C296.507 59.334 292.723 58.052 289.762 55.4881C286.8 52.9241 285.319 49.4724 285.319 45.1328V17.0812H294.675V44.3012C294.675 48.1688 296.82 50.1004 301.109 50.1004C305.397 50.1004 307.542 48.1688 307.542 44.3012V17.0812H316.899V45.1328C316.899 49.4724 315.418 52.9241 312.456 55.4881Z" fill="white"/>
<path d="M346.608 58.5067L338.886 44.8946H334.443V58.5067H325.087V17.0812H341.463C345.362 17.0812 348.675 18.4628 351.406 21.2216C354.133 23.9847 355.498 27.3369 355.498 31.2824C355.498 33.8073 354.805 36.146 353.422 38.2942C352.04 40.4467 350.216 42.1098 347.952 43.2964L356.667 58.5067H346.608ZM334.443 25.9597V36.6095H341.463C342.752 36.6095 343.852 36.0984 344.768 35.072C345.683 34.0455 346.141 32.7852 346.141 31.2824C346.141 29.7839 345.683 28.5236 344.768 27.4971C343.852 26.4707 342.752 25.9597 341.463 25.9597H334.443Z" fill="white"/>
</svg>
