<svg width="30" height="30" viewBox="0 0 30 30" fill="none" xmlns="http://www.w3.org/2000/svg">
<path d="M22.755 7.20251C20.6975 5.14376 17.9612 4.00876 15.0462 4.00751C9.0375 4.00751 4.14875 8.89376 4.1475 14.9C4.145 16.8113 4.64625 18.69 5.60125 20.3463L4.055 25.9913L9.8325 24.4763C11.4312 25.3463 13.2212 25.8025 15.0412 25.8025H15.0462C21.0525 25.8025 25.9412 20.915 25.9437 14.9088C25.945 11.9988 24.8125 9.26251 22.755 7.20251Z" stroke="#04162C" stroke-width="2" stroke-linecap="round" stroke-linejoin="round"/>
<path d="M16.3688 16.95L16.8763 16.4463C17.3425 15.9838 18.08 15.925 18.6175 16.3025C19.1375 16.6675 19.6075 16.995 20.045 17.3C20.74 17.7825 20.8237 18.7725 20.225 19.37L19.7763 19.8188" stroke="#04162C" stroke-width="2" stroke-linecap="round" stroke-linejoin="round"/>
<path d="M10.1813 10.2237L10.63 9.77499C11.2275 9.17749 12.2175 9.26124 12.7 9.95499C13.0038 10.3925 13.3313 10.8625 13.6975 11.3825C14.075 11.92 14.0175 12.6575 13.5538 13.1237L13.05 13.6312" stroke="#04162C" stroke-width="2" stroke-linecap="round" stroke-linejoin="round"/>
<path d="M19.7762 19.8187C17.925 21.6612 14.8137 20.0962 12.3575 17.6387" stroke="#04162C" stroke-width="2" stroke-linecap="round" stroke-linejoin="round"/>
<path d="M12.36 17.6425C9.90375 15.185 8.33875 12.075 10.1813 10.2238" stroke="#04162C" stroke-width="2" stroke-linecap="round" stroke-linejoin="round"/>
<path d="M13.05 13.6312C13.4487 14.26 13.96 14.8825 14.5375 15.46L14.54 15.4625C15.1175 16.04 15.74 16.5512 16.3688 16.95" stroke="#04162C" stroke-width="2" stroke-linecap="round" stroke-linejoin="round"/>
</svg>
